<svg id="svg-source" height="0" version="1.1" 
  xmlns="http://www.w3.org/2000/svg" style="position:absolute; margin-left: -100%" 
  xmlns:xlink="http://www.w3.org/1999/xlink">
  <g id="twitter" data-iconmelon="Geomicons:7797bbd282acf10223ac0469689a99ba">
    <path  d="M30,0H2C0.896,0,0,0.896,0,2v28c0,1.104,0.896,2,2,2h28c1.104,0,2-0.896,2-2V2C32,0.896,31.104,0,30,0z
	 M16,20h4c1.104,0,2,0.896,2,2s-0.896,2-2,2h-4c-3.756,0-6-3.051-6-6v-8c0-1.104,0.896-2,2-2s2,0.896,2,2v2h6c1.104,0,2,0.896,2,2
	s-0.896,2-2,2h-6v2C14,18.804,14.533,20,16,20z"></path>
  </g>
  <g id="facebook" data-iconmelon="Geomicons:b554049cf1534a807bc96ede57585196">
    <path  d="M30,0H2C0.896,0,0,0.896,0,2v28c0,1.104,0.896,2,2,2h28c1.104,0,2-0.896,2-2V2C32,0.896,31.104,0,30,0z
	 M20,10.75h-1.5c-1.033,0-1,0.393-1,1.112V13H20l-0.5,3h-2v8H14v-8h-1.5v-3H14v-1.413C14,9.338,15.123,8,17.775,8H20V10.75z"></path>
  </g>
  <g id="search" data-iconmelon="Geomicons:fb3712a02e6eea422a4d80f91a212923">
    <path  d="M30.828,30.828C30.048,31.609,29.023,32,28,32s-2.047-0.391-2.828-1.172l-6.255-6.254
	C17.142,25.483,15.132,26,13,26C5.82,26,0,20.18,0,13S5.82,0,13,0s13,5.82,13,13c0,2.132-0.517,4.142-1.426,5.917l6.254,6.255
	C32.391,26.733,32.391,29.267,30.828,30.828z M13,20c3.866,0,7-3.134,7-7s-3.134-7-7-7s-7,3.134-7,7S9.134,20,13,20z"></path>
  </g>
  <g id="book" data-iconmelon="Geomicons:6858ad8c879a65d792a2a190be217b8a">
    <path  d="M15,8v20c-1-1-3-3-7.5-3c-2.904,0-5.121,0.595-6.184,0.949C1.213,25.983,1.106,26,1,26
	c-0.207,0-0.412-0.064-0.584-0.188C0.155,25.624,0,25.321,0,25V7c0-0.279,0.117-0.546,0.322-0.735C1.721,4.974,4.807,4,7.5,4
	c3.686,0,5.829,2.004,6.98,3.08c0.069,0.065,0.135,0.127,0.198,0.185C14.883,7.454,15,7.721,15,8z M17,8v20c1-1,3-3,7.5-3
	c2.904,0,5.121,0.595,6.184,0.949C30.787,25.983,30.894,26,31,26c0.207,0,0.412-0.064,0.585-0.188C31.845,25.624,32,25.321,32,25V7
	c0-0.279-0.117-0.546-0.322-0.735C30.279,4.974,27.193,4,24.5,4c-3.686,0-5.829,2.004-6.98,3.08
	c-0.069,0.065-0.135,0.127-0.198,0.185C17.117,7.454,17,7.721,17,8z"></path>
  </g>
  <g id="music-note" data-iconmelon="Geomicons:77c591b3a97b781e2604686fefe1f64e">
    <path  d="M31,0H11c-0.55,0-1,0.45-1,1v17.675C9.091,18.242,8.074,18,7,18c-3.866,0-7,3.134-7,7s3.134,7,7,7
	s7-3.134,7-7V8h14v10.675C27.091,18.242,26.074,18,25,18c-3.866,0-7,3.134-7,7s3.134,7,7,7s7-3.134,7-7V1C32,0.45,31.55,0,31,0z"></path>
  </g>
  <g id="image" data-iconmelon="Geomicons:61485526a5d8038c341bdfe3fef00733">
    <path  d="M32,6v20c0,1.104-0.896,2-2,2H2c-1.104,0-2-0.896-2-2V6c0-1.104,0.896-2,2-2h28C31.104,4,32,4.896,32,6z
	 M21.895,22.553l-4-8c-0.144-0.287-0.417-0.488-0.734-0.54C17.107,14.004,17.053,14,17,14c-0.263,0-0.518,0.104-0.707,0.293
	l-1.138,1.138l-3.323-4.985C11.646,10.166,11.333,10,11,10c-0.021,0-0.042,0.001-0.062,0.002c-0.355,0.022-0.673,0.232-0.832,0.551
	l-6,12C4.035,22.694,4,22.847,4,23c0,0.183,0.05,0.365,0.149,0.525C4.332,23.82,4.653,24,5,24h16c0.347,0,0.668-0.18,0.851-0.475
	C21.95,23.365,22,23.183,22,23C22,22.847,21.965,22.694,21.895,22.553z M20,12c0,2.209,1.791,4,4,4s4-1.791,4-4s-1.791-4-4-4
	S20,9.791,20,12z"></path>
  </g>
  <g id="heart" data-iconmelon="Geomicons:2a212e09d6d78674fc6288cd25dd6713">
    <path  d="M29.511,4.49C27.904,2.884,25.771,2,23.5,2s-4.405,0.884-6.01,2.49c-0.601,0.6-1.1,1.274-1.49,2.002
	c-0.391-0.728-0.889-1.402-1.489-2.002C12.904,2.884,10.771,2,8.5,2S4.095,2.884,2.49,4.49C0.885,6.095,0,8.229,0,10.5
	s0.885,4.405,2.49,6.01l12.044,12.851C14.912,29.769,15.443,30,16,30s1.087-0.231,1.466-0.639L29.511,16.51
	C31.115,14.905,32,12.771,32,10.5S31.115,6.095,29.511,4.49z"></path>
  </g>
  <g id="message" data-iconmelon="Geomicons:70bda94673c2950a06d03c12b1e489a5">
    <path  d="M0,6.82V6c0-1.104,0.896-2,2-2h28c1.104,0,2,0.896,2,2v0.82l-16,10L0,6.82z M16.53,18.848
	C16.368,18.949,16.184,19,16,19s-0.368-0.051-0.53-0.152L0,9.18V26c0,1.104,0.896,2,2,2h28c1.104,0,2-0.896,2-2V9.18L16.53,18.848z"></path>
  </g>
  <g id="ghost" data-iconmelon="Geomicons:56835b7f057faeec1b4d4b589c927a8f">
    <path  d="M24.861,4.485C23.62,2.416,20.556,0,16.004,0c-4.554,0-7.62,2.416-8.862,4.485C4.146,9.474,2.001,31.99,2,32
	c2.33-0.003,2.332-2,4.665-2c2.334,0,2.334,2,4.668,2s2.334-2,4.669-2h0.002h0.002c2.334,0,2.334,2,4.667,2s2.333-2,4.665-2
	s2.334,1.997,4.662,2C29.999,31.99,27.854,9.474,24.861,4.485z M10.004,15c-1.104,0-2-0.896-2-2s0.896-2,2-2s2,0.896,2,2
	S11.108,15,10.004,15z M22.004,15c-1.104,0-2-0.896-2-2s0.896-2,2-2s2,0.896,2,2S23.108,15,22.004,15z"></path>
  </g>
  <g id="tag" data-iconmelon="Geomicons:38e052014f273c179f702cea9fd4f101">
    <path  d="M28,12c0,8.728-10.154,18.982-10.586,19.414C17.023,31.805,16.512,32,16,32s-1.023-0.195-1.414-0.586
	C14.154,30.982,4,20.728,4,12C4,5.383,9.383,0,16,0S28,5.383,28,12z M16,18c3.314,0,6-2.686,6-6c0-3.313-2.686-6-6-6
	c-3.313,0-6,2.687-6,6C10,15.314,12.687,18,16,18z"></path>
  </g>
  <g id="home" data-iconmelon="Geomicons:f3eb518b687cf4b972a6edff82c91702">
    <path  d="M31.163,10.373l-14-10C16.815,0.124,16.407,0,16,0s-0.815,0.124-1.163,0.373l-14,10
	C0.312,10.748,0,11.354,0,12v18c0,1.104,0.896,2,2,2h8V20c0-1.104,0.896-2,2-2h8c1.104,0,2,0.896,2,2v12h8c1.104,0,2-0.896,2-2V12
	C32,11.354,31.688,10.748,31.163,10.373z"></path>
  </g>
  <g id="photo" data-iconmelon="Geomicons:d088f2b32f7270b34ad34f3ff0b03227">
    <path  d="M32,8v20c0,1.104-0.896,2-2,2H2c-1.104,0-2-0.896-2-2V8c0-1.104,0.896-2,2-2h4.764l1.447-2.895
	C8.55,2.428,9.243,2,10,2h12c0.757,0,1.45,0.428,1.789,1.105L25.236,6H30C31.104,6,32,6.896,32,8z M16,26c4.418,0,8-3.582,8-8
	s-3.582-8-8-8s-8,3.582-8,8S11.582,26,16,26z"></path>
  </g>
  <g id="sound" data-iconmelon="Geomicons:ce7e9b3f3240bf5e1db1d7212d283271">
    <path  d="M26.866,0.197C26.591,0.065,26.295,0,26,0c-0.446,0-0.888,0.149-1.25,0.438L15.298,8H6c-1.104,0-2,0.896-2,2
	v12c0,1.104,0.896,2,2,2h9.298l9.452,7.562C25.112,31.851,25.554,32,26,32c0.294,0,0.59-0.065,0.866-0.197
	C27.56,31.47,28,30.769,28,30V2C28,1.231,27.56,0.53,26.866,0.197z"></path>
  </g>
  <g id="video" data-iconmelon="Geomicons:fb7baff227b3e9952fd23b05500fb55e">
    <path  d="M31.052,8.299C30.73,8.101,30.365,8,30,8c-0.306,0-0.612,0.07-0.895,0.211L24,10.764V6c0-1.104-0.896-2-2-2
	H2C0.896,4,0,4.896,0,6v20c0,1.104,0.896,2,2,2h20c1.104,0,2-0.896,2-2v-4.764l5.105,2.552C29.388,23.93,29.694,24,30,24
	c0.365,0,0.73-0.1,1.052-0.299C31.641,23.337,32,22.693,32,22V10C32,9.307,31.641,8.663,31.052,8.299z"></path>
  </g>
  <g id="link" data-iconmelon="Geomicons:0e4f7aabdf7b47f3ccdc71e5828b99c0">
    <g>
      <path  d="M16.414,19.586L10,26l-4-4l6.414-6.414l-2-2C10.023,13.195,9.512,13,9,13s-1.023,0.195-1.414,0.586l-7,7
		C0.195,20.976,0,21.488,0,22s0.195,1.024,0.586,1.414l8,8C8.977,31.805,9.488,32,10,32s1.023-0.195,1.414-0.586l7-7
		C18.805,24.024,19,23.512,19,23c0-0.512-0.195-1.024-0.586-1.415L16.414,19.586z"></path>
      <path  d="M31.414,8.586l-8-8C23.023,0.195,22.512,0,22,0s-1.023,0.195-1.414,0.586l-7,7C13.195,7.976,13,8.488,13,9
		s0.195,1.023,0.586,1.414l2,2L22,6l4,4l-6.414,6.414l2,2C21.977,18.805,22.488,19,23,19s1.023-0.195,1.414-0.586l7-7
		C31.805,11.024,32,10.512,32,10C32,9.488,31.805,8.977,31.414,8.586z"></path>
    </g>
  </g>
  <g id="linkedin" data-iconmelon="Flat Social Icons Multicolor:713a9a6056e571033d961c41f9e5aa34">
    <g>
      <path fill="#0D78B6" d="M16,32c8.838,0,16-7.164,16-16S24.838,0,16,0C7.163,0,0,7.164,0,16S7.163,32,16,32"></path>
      <path fill="#FFFFFF" d="M11.522,22.691H8.403v-9.98h3.119V22.691z M9.883,11.463H9.86c-1.129,0-1.86-0.764-1.86-1.73
		C8,8.748,8.754,8,9.905,8c1.15,0,1.857,0.746,1.88,1.73C11.785,10.697,11.056,11.463,9.883,11.463z M24,22.691h-3.537v-5.164
		c0-1.353-0.552-2.275-1.77-2.275c-0.93,0-1.446,0.623-1.688,1.224c-0.09,0.216-0.075,0.515-0.075,0.816v5.399h-3.504
		c0,0,0.046-9.148,0-9.98h3.504v1.566c0.207-0.685,1.326-1.662,3.112-1.662c2.216,0,3.958,1.436,3.958,4.527V22.691z"></path>
    </g>
  </g>
  <g id="facebook1" data-iconmelon="Flat Social Icons Multicolor:38ae6a9229521dad4b32606188a9dc31">
    <g>
      <path fill="#35679A" d="M16,32c8.836,0,16-7.163,16-16c0-8.836-7.164-16-16-16S0,7.164,0,16C0,24.837,7.163,32,16,32"></path>
      <path fill="#FFFFFF" d="M12.14,13.291h1.654v-1.608c0-0.708,0.018-1.802,0.533-2.479C14.869,8.487,15.614,8,16.895,8
		c2.087,0,2.965,0.298,2.965,0.298l-0.414,2.451c0,0-0.689-0.2-1.332-0.2c-0.644,0-1.22,0.231-1.22,0.874v1.869h2.638l-0.184,2.394
		h-2.454V24h-3.101v-8.315H12.14V13.291z"></path>
    </g>
  </g>
  <g id="skype" data-iconmelon="Flat Social Icons Multicolor:7bea12547295ed9029c6fcbbd9244435">
    <g>
      <path fill="#28AAE2" d="M16,32c8.837,0,16-7.163,16-16c0-8.836-7.163-16-16-16C7.164,0,0,7.164,0,16C0,24.837,7.164,32,16,32"></path>
      <path fill="#FFFFFF" d="M24.014,11.809c-0.59,0.261-1.224,0.438-1.889,0.518c0.68-0.407,1.202-1.051,1.446-1.818
		c-0.636,0.376-1.339,0.65-2.09,0.797c-0.598-0.639-1.453-1.038-2.399-1.038c-1.815,0-3.287,1.473-3.287,3.288
		c0,0.258,0.027,0.508,0.085,0.749c-2.732-0.137-5.155-1.445-6.778-3.436c-0.283,0.487-0.444,1.052-0.444,1.655
		c0,1.14,0.58,2.146,1.462,2.737c-0.538-0.017-1.045-0.166-1.49-0.411v0.041c0,1.594,1.134,2.922,2.639,3.224
		c-0.275,0.077-0.565,0.116-0.866,0.116c-0.212,0-0.418-0.02-0.618-0.059c0.418,1.306,1.632,2.257,3.071,2.282
		c-1.126,0.883-2.544,1.408-4.084,1.408c-0.265,0-0.527-0.015-0.784-0.045c1.455,0.932,3.184,1.477,5.04,1.477
		c6.05,0,9.355-5.009,9.355-9.355c0-0.143-0.003-0.285-0.009-0.425C23.016,13.047,23.575,12.468,24.014,11.809"></path>
    </g>
  </g>
  <g id="instagram" data-iconmelon="Flat Social Icons Multicolor:9e23392433d61906b4e04b90fb81dd65">
    <g>
      <path fill="#35679A" d="M16,32c8.837,0,16-7.164,16-16S24.837,0,16,0C7.162,0,0,7.164,0,16S7.162,32,16,32"></path>
      <path fill="#FFFFFF" d="M20.909,8h-9.815c-1.705,0-3.092,1.387-3.092,3.092v3.265v6.55c0,1.705,1.387,3.092,3.092,3.092h9.815
		c1.705,0,3.093-1.387,3.093-3.092v-6.55v-3.265C24.002,9.387,22.614,8,20.909,8z M21.797,9.845l0.354-0.002v0.353v2.359
		l-2.703,0.009l-0.01-2.712L21.797,9.845z M13.719,14.357c0.512-0.709,1.344-1.174,2.283-1.174s1.771,0.465,2.283,1.174
		c0.334,0.463,0.533,1.029,0.533,1.643c0,1.553-1.264,2.815-2.816,2.815S13.186,17.553,13.186,16
		C13.186,15.386,13.386,14.82,13.719,14.357z M22.443,20.908c0,0.846-0.688,1.533-1.534,1.533h-9.815
		c-0.846,0-1.533-0.687-1.533-1.533v-6.55h2.389c-0.206,0.508-0.322,1.062-0.322,1.643c0,2.413,1.963,4.375,4.375,4.375
		s4.375-1.962,4.375-4.375c0-0.581-0.117-1.135-0.322-1.643h2.389V20.908z"></path>
    </g>
  </g>
  <g id="dropbox" data-iconmelon="Flat Social Icons Multicolor:c062f436d893fb2fbaf99e7387d9e76e">
    <g>
      <path fill="#2864AE" d="M16,32c8.837,0,16-7.164,16-16c0-8.836-7.163-16-16-16C7.162,0,0,7.164,0,16C0,24.836,7.162,32,16,32"></path>
      <polygon fill="#FFFFFF" points="8,16.843 12.707,19.915 16,17.169 11.254,14.239 	"></polygon>
      <polygon fill="#FFFFFF" points="12.707,8.563 8,11.633 11.254,14.239 16,11.31 	"></polygon>
      <polygon fill="#FFFFFF" points="24,11.633 19.293,8.563 16,11.31 20.746,14.239 	"></polygon>
      <polygon fill="#FFFFFF" points="16,17.169 19.293,19.915 24,16.843 20.746,14.239 	"></polygon>
      <polygon fill="#FFFFFF" points="16.01,17.759 12.707,20.498 11.293,19.576 11.293,20.61 16.01,23.437 20.727,20.61 20.727,19.576 
		19.313,20.498 	"></polygon>
    </g>
  </g>
  <g id="tumblr" data-iconmelon="Flat Social Icons:24bf431e88e63578da6132535013e512">
    <path d="M16,0.001C7.163,0.001,0,7.164,0,16c0,8.836,7.163,16,16,16s16-7.164,16-16C32,7.164,24.837,0.001,16,0.001z
	 M20.501,23.128c-0.685,0.32-1.303,0.547-1.857,0.676C18.089,23.936,17.49,24,16.846,24c-0.731,0-1.379-0.093-1.939-0.276
	c-0.562-0.187-1.042-0.448-1.438-0.791c-0.396-0.342-0.673-0.707-0.825-1.091c-0.153-0.385-0.229-0.943-0.229-1.675v-5.611h-1.77
	v-2.264c0.63-0.205,1.167-0.498,1.615-0.878c0.448-0.381,0.809-0.839,1.079-1.374C13.608,9.506,13.796,8.825,13.898,8h2.275v4.044
	h3.796v2.511h-3.796v4.103c0,0.928,0.049,1.523,0.146,1.786c0.098,0.265,0.28,0.475,0.55,0.632c0.353,0.212,0.757,0.317,1.213,0.317
	c0.811,0,1.615-0.264,2.418-0.791V23.128z"></path>
  </g>
  <g id="dropbox1" data-iconmelon="Flat Social Icons:a57142a646219e495b85f185ff6a4cec">
    <g>
      <polygon points="11.254,14.239 16,17.169 20.746,14.239 16,11.31 	"></polygon>
      <path d="M16,0C7.162,0,0,7.164,0,16c0,8.836,7.162,16,16,16c8.837,0,16-7.164,16-16C32,7.164,24.837,0,16,0z
		 M20.727,20.61l-4.716,2.826l-4.717-2.826v-1.035l1.414,0.922l3.303-2.739l3.303,2.739l1.413-0.922V20.61z M24,16.843l-4.707,3.071
		L16,17.169l-3.293,2.746L8,16.843l3.254-2.604L8,11.633l4.707-3.069L16,11.31l3.293-2.746L24,11.633l-3.254,2.606L24,16.843z"></path>
    </g>
  </g>
  <g id="facebook2" data-iconmelon="Flat Social Icons:05a5948ba66490483129c2bcdaa481f1">
    <path d="M16,0C7.163,0,0,7.164,0,16c0,8.837,7.163,16,16,16s16-7.163,16-16C32,7.164,24.836,0,16,0z M19.532,13.291
	l-0.184,2.394h-2.454V24h-3.101v-8.315H12.14v-2.394h1.654v-1.608c0-0.708,0.018-1.802,0.533-2.479C14.869,8.487,15.614,8,16.895,8
	c2.087,0,2.965,0.298,2.965,0.298l-0.414,2.451c0,0-0.689-0.2-1.332-0.2c-0.644,0-1.22,0.231-1.22,0.874v1.869H19.532z"></path>
  </g>
  <g id="twitter1" data-iconmelon="Flat Social Icons:26b05726b10222fa77dc99e12fd47da2">
    <path d="M16,0C7.164,0,0,7.164,0,16c0,8.837,7.164,16,16,16c8.837,0,16-7.163,16-16C32,7.164,24.837,0,16,0z
	 M22.373,13.511c0.006,0.14,0.009,0.283,0.009,0.425c0,4.346-3.306,9.355-9.355,9.355c-1.856,0-3.585-0.544-5.04-1.477
	c0.257,0.031,0.52,0.045,0.784,0.045c1.54,0,2.958-0.525,4.084-1.408c-1.439-0.025-2.653-0.977-3.071-2.282
	c0.2,0.039,0.406,0.059,0.618,0.059c0.301,0,0.591-0.039,0.866-0.116c-1.505-0.301-2.639-1.63-2.639-3.224v-0.041
	c0.445,0.245,0.952,0.394,1.49,0.411c-0.882-0.59-1.462-1.597-1.462-2.737c0-0.603,0.161-1.167,0.444-1.655
	c1.623,1.991,4.046,3.299,6.778,3.436c-0.058-0.24-0.085-0.491-0.085-0.749c0-1.815,1.472-3.288,3.287-3.288
	c0.946,0,1.802,0.399,2.399,1.038c0.751-0.147,1.454-0.42,2.09-0.797c-0.244,0.768-0.767,1.411-1.446,1.818
	c0.665-0.08,1.299-0.256,1.889-0.518C23.575,12.468,23.016,13.047,22.373,13.511z"></path>
  </g>
  <g id="instagram1" data-iconmelon="Flat Social Icons:39303518cc8a9ce85bae15b2e6037450">
    <g>
      <polygon points="22.15,12.555 22.15,10.196 22.15,9.843 21.797,9.845 19.438,9.852 19.447,12.564 	"></polygon>
      <path d="M16.002,18.815c1.553,0,2.816-1.263,2.816-2.815c0-0.614-0.199-1.18-0.533-1.643
		c-0.512-0.709-1.344-1.174-2.283-1.174s-1.771,0.465-2.283,1.174c-0.333,0.463-0.533,1.029-0.533,1.643
		C13.186,17.553,14.449,18.815,16.002,18.815z"></path>
      <path d="M16,0C7.162,0,0,7.164,0,16s7.162,16,16,16c8.837,0,16-7.164,16-16S24.837,0,16,0z M24.002,14.357v6.55
		c0,1.705-1.388,3.092-3.093,3.092h-9.815c-1.705,0-3.092-1.387-3.092-3.092v-6.55v-3.265C8.002,9.387,9.389,8,11.094,8h9.815
		c1.705,0,3.093,1.387,3.093,3.092V14.357z"></path>
      <path d="M20.377,16c0,2.413-1.963,4.375-4.375,4.375S11.627,18.413,11.627,16c0-0.581,0.116-1.135,0.322-1.643
		H9.561v6.55c0,0.846,0.688,1.533,1.533,1.533h9.815c0.847,0,1.534-0.687,1.534-1.533v-6.55h-2.389
		C20.26,14.865,20.377,15.419,20.377,16z"></path>
    </g>
  </g>
  <g id="twitter2" data-iconmelon="Icon Set:eeebd993f17031eaa4f1de6332f78601">
    <path d="M27.952,6.271c0.835-0.104,1.64-0.295,2.419-0.551
        c0.041,0.003,0.088,0.001,0.147-0.02c0.644-0.221,0.745-0.001,0.603,0.349c-0.768,1.016-1.666,1.923-2.674,2.678
        c0.012,0.293,0.019,0.587,0.019,0.882c0,9.011-6.605,19.4-18.685,19.4c-2.758,0-5.371-0.626-7.727-1.74
        c-1.074-0.628-1.346-1.349,0.39-1.257c0.177,0.009,0.294-0.025,0.388-0.076c2.473-0.3,4.741-1.298,6.604-2.813
        c-2.874-0.055-5.3-2.026-6.135-4.735c0.401,0.08,0.812,0.123,1.235,0.123c0.6,0,1.18-0.084,1.73-0.24
        C3.263,17.644,1,14.888,1,11.584c0-0.029,0-0.058,0-0.086c0.885,0.511,1.898,0.817,2.975,0.854
        c-1.762-1.223-2.922-3.311-2.922-5.676c0-0.244,0.022-0.482,0.047-0.72C1.126,5.712,1.16,5.497,1.201,5.304
        c0.004-0.02,0.007-0.039,0.012-0.059c0.318-1.429,1.072-1.387,2.793,0.246c0.052,0.05,0.104,0.07,0.156,0.108
        c3.061,2.775,6.986,4.547,11.316,4.772c-0.112-0.499-0.17-1.02-0.17-1.554C15.309,5.053,18.248,2,21.875,2
        c1.89,0,3.596,0.828,4.794,2.153C27.82,3.918,28.917,3.524,29.941,3c0.629-0.135,0.372,0.699,0.002,1.315
        C29.412,5.1,28.746,5.776,27.952,6.271z"></path>
  </g>
  <g id="foursquare" data-iconmelon="Icon Set:b76a7fcf138de774afaf456aa22330e2">
    <path d="M30.707,7.688l-15.81,16.815l-6.734-6.174c1.537-0.776,2.771-2.061,3.48-3.636
        l3.012,3.287l9.892-15.953c0.01-0.014,0.02-0.021,0.027-0.035c0.447-0.737,0.711-0.725,0.994-0.49l5.076,5.066
        C31.16,7.098,31.055,7.303,30.707,7.688z M14.993,8.269l-2.719,2.715c-0.085-1.002-0.365-1.946-0.805-2.798l2.658-2.654
        c0.475-0.473,1.242-0.473,1.714,0l2.85,2.845l-1.354,2.233L14.993,8.269z M4.767,16.991c-2.968,0-5.373-2.404-5.373-5.369
        s2.405-5.369,5.373-5.369s5.373,2.404,5.373,5.369S7.735,16.991,4.767,16.991z M5.18,19.119l9.812,9.797l10.341-10.324l-1.512-1.51
        l1.754-1.832l2.486,2.482c0.473,0.473,0.473,1.239,0,1.712L15.842,31.646c-0.472,0.473-1.24,0.473-1.714,0L1.909,19.444
        c-0.279-0.278-0.373-0.656-0.323-1.019c0.97,0.453,2.047,0.714,3.188,0.714C4.911,19.14,5.044,19.126,5.18,19.119z"></path>
  </g>
  <g id="facebook3" data-iconmelon="Icon Set:18f54138c3ef2a289211cc51759699fe">
    <path d="M27,30h-6v-9.063h2c0.553,0,1-0.445,1-0.994v-1.988c0-0.549-0.447-0.994-1-0.994
        h-1.993l0.006-1.382c0-1.027-0.535-1.601,0.987-1.601h2c0.553,0,1-0.445,1-0.995v-1.988C25,10.445,24.553,10,24,10h-3
        c-3.91,0-5,1.756-5,4.972v1.988h-1c-0.553,0-1,0.445-1,0.994v1.988c0,0.549,0.447,0.994,1,0.994h1V30H5c-1.656,0-3-1.343-3-3V5
        c0-1.657,1.344-3,3-3h22c1.656,0,3,1.343,3,3v22C30,28.657,28.656,30,27,30z"></path>
  </g>
  <g id="info" data-iconmelon="Icon Set:97194a9f90bdf6b62d4cda14ba3ada78">
    <path d="M16,2C8.269,2,2,8.268,2,16c0,7.732,6.269,14,14,14c7.732,0,14-6.268,14-14
        C30,8.268,23.732,2,16,2z M17.273,23c-0.068,0.553-0.601,1-1.191,1H13.95c-0.589,0-1.011-0.447-0.942-1l0.998-8
        c0.069-0.553,0.603-1,1.191-1h2.133c0.59,0,1.012,0.447,0.941,1L17.273,23z M18.755,11c-0.068,0.553-0.602,1-1.191,1h-2.133
        c-0.589,0-1.011-0.447-0.942-1l0.25-2c0.068-0.552,0.602-1,1.191-1h2.133c0.59,0,1.011,0.448,0.942,1L18.755,11z"></path>
  </g>
  <g id="smile-normal" data-iconmelon="Minicons Free Vector Icons Pack:f4fb5e52efa6391ee6008850ef71a4e3">
    <g>
      <path  d="M16,0C7.164,0,0,7.164,0,16c0,8.838,7.164,16,16,16s16-7.162,16-16C32,7.164,24.836,0,16,0z M16,30
		C8.281,30,2,23.721,2,16C2,8.28,8.281,2,16,2s14,6.28,14,14C30,23.721,23.719,30,16,30z"></path>
      <ellipse  cx="12" cy="11" rx="2" ry="3"></ellipse>
      <ellipse  cx="20" cy="11" rx="2" ry="3"></ellipse>
      <rect x="8" y="20"  width="16" height="2"></rect>
    </g>
  </g>
  <g id="smile-sad" data-iconmelon="Minicons Free Vector Icons Pack:7069b5619243a3b48736346ed061ed28">
    <g>
      <path  d="M16,0C7.164,0,0,7.164,0,16c0,8.838,7.164,16,16,16s16-7.162,16-16C32,7.164,24.836,0,16,0z M16,30
		C8.281,30,2,23.721,2,16C2,8.28,8.281,2,16,2s14,6.28,14,14C30,23.721,23.719,30,16,30z"></path>
      <path  d="M16,18c-5.051,0-7.066,2.346-10,6h0.223c2.523-2.471,5.973-4,9.777-4s7.254,1.529,9.781,4H26
		C23.066,20.346,21.051,18,16,18z"></path>
      <ellipse  cx="12" cy="11" rx="2" ry="3"></ellipse>
      <ellipse  cx="20" cy="11" rx="2" ry="3"></ellipse>
    </g>
  </g>
  <g id="smile" data-iconmelon="Minicons Free Vector Icons Pack:8b14fd595bf0580ecdc92b352c4c2ed7">
    <g>
      <path  d="M16,0C7.164,0,0,7.164,0,16c0,8.838,7.164,16,16,16s16-7.162,16-16C32,7.164,24.836,0,16,0z M16,30
		C8.281,30,2,23.721,2,16C2,8.28,8.281,2,16,2s14,6.28,14,14C30,23.721,23.719,30,16,30z"></path>
      <path  d="M25.781,18c-2.527,2.471-5.977,4-9.781,4s-7.254-1.529-9.777-4H6c2.934,3.654,4.949,6,10,6
		s7.066-2.346,10-6H25.781z"></path>
      <ellipse  cx="12" cy="11" rx="2" ry="3"></ellipse>
      <ellipse  cx="20" cy="11" rx="2" ry="3"></ellipse>
    </g>
  </g>
  <g id="smile-wink" data-iconmelon="Minicons Free Vector Icons Pack:26277f2bff27e915bb6f630b5678c3be">
    <g>
      <path  d="M16,0C7.164,0,0,7.164,0,16c0,8.838,7.164,16,16,16s16-7.162,16-16C32,7.164,24.836,0,16,0z M16,30
		C8.281,30,2,23.721,2,16C2,8.28,8.281,2,16,2s14,6.28,14,14C30,23.721,23.719,30,16,30z"></path>
      <ellipse  cx="12" cy="11" rx="2" ry="3"></ellipse>
      <path  d="M16,22c-3.285,0-6.172-1.604-7.996-4.049L8,18c0,4.418,3.582,8,8,8s8-3.582,8-8l-0.004-0.049
		C22.172,20.396,19.285,22,16,22z"></path>
      <rect x="18" y="10"  width="6" height="2"></rect>
    </g>
  </g>
  <g id="smile-laugh" data-iconmelon="Minicons Free Vector Icons Pack:9e3059267850d195a76650af4531a1e7">
    <g>
      <path  d="M16,0C7.164,0,0,7.164,0,16c0,8.838,7.164,16,16,16s16-7.162,16-16C32,7.164,24.836,0,16,0z M16,30
		C8.281,30,2,23.721,2,16C2,8.28,8.281,2,16,2s14,6.28,14,14C30,23.721,23.719,30,16,30z"></path>
      <ellipse  cx="12" cy="11" rx="2" ry="3"></ellipse>
      <ellipse  cx="20" cy="11" rx="2" ry="3"></ellipse>
      <path  d="M7.527,21.166C9.27,24.049,12.383,26,16,26c3.621,0,6.73-1.951,8.473-4.834
		c0.582-0.963,1-2.027,1.238-3.166H6.293C6.527,19.139,6.945,20.203,7.527,21.166z"></path>
    </g>
  </g>
  <g id="facebook4" data-iconmelon="Minicons Free Vector Icons Pack:12434589a4f6191853be31e78bae105b">
    <path id="Facebook__x28_alt_x29__1_"  d="M32,5.334C32,2.533,29.469,0,26.668,0H5.334C2.531,0,0,2.533,0,5.334v21.334
	C0,29.471,2.531,32,5.334,32H16V19.914h-3.91V14.58H16V12.5c0-3.582,2.691-6.811,6-6.811h4.312v5.334H22
	c-0.473,0-1.021,0.572-1.021,1.432v2.125h5.334v5.334h-5.334V32h5.689C29.469,32,32,29.471,32,26.668V5.334z"></path>
  </g>
  <g id="twitter3" data-iconmelon="Minicons Free Vector Icons Pack:4d5e1e9d9c79ab0e73be82a70d538006">
    <path id="Twitter__x28_alt_x29__1_"  d="M28.375,14.778c1.793-0.148,3.014-0.965,3.484-2.074
	c-0.648,0.398-2.66,0.836-3.773,0.418c-0.055-0.258-0.113-0.508-0.174-0.73c-0.85-3.113-3.746-5.617-6.785-5.312
	c0.244-0.098,0.494-0.195,0.744-0.277c0.336-0.117,2.297-0.438,1.988-1.133c-0.262-0.605-2.658,0.461-3.109,0.602
	c0.594-0.223,1.582-0.605,1.688-1.293c-0.916,0.125-1.811,0.555-2.504,1.188c0.25-0.273,0.441-0.602,0.48-0.953
	c-2.436,1.555-3.857,4.691-5.008,7.734c-0.904-0.879-1.705-1.566-2.422-1.949c-2.018-1.082-4.43-2.207-8.213-3.613
	c-0.115,1.25,0.617,2.918,2.736,4.023c-0.457-0.062-1.297,0.074-1.967,0.234c0.271,1.438,1.166,2.617,3.584,3.188
	c-1.105,0.074-1.676,0.324-2.195,0.867c0.504,0.996,1.732,2.172,3.941,1.93c-2.455,1.059-1,3.02,0.996,2.727
	C8.461,23.872,3.086,23.614,0,20.668c8.055,10.98,25.57,6.496,28.18-4.082c1.957,0.02,3.107-0.68,3.82-1.441
	C30.871,15.336,29.238,15.137,28.375,14.778z"></path>
  </g>
  <g id="arrow-right" data-iconmelon="Minicons Free Vector Icons Pack:d0daccdefc84bbfb0536de07d7f8eea8">
    <polygon  points="32,16 22,8 22,14 0,14 0,18 22,18 22,24 "></polygon>
  </g>
  <g id="arrow-down" data-iconmelon="Minicons Free Vector Icons Pack:5be6cd1f2900e741f75c8a53efa24a67">
    <polygon  points="18,22 18,0 14,0 14,22 8,22 16,32 24,22 "></polygon>
  </g>
  <g id="arrow-up" data-iconmelon="Minicons Free Vector Icons Pack:6aa028efc8a5744967161394b6e32816">
    <polygon  points="24,10 16,0 8,10 14,10 14,32 18,32 18,10 "></polygon>
  </g>
  <g id="arrow-left" data-iconmelon="Minicons Free Vector Icons Pack:ab1e8d529aab604d04b316dd371a3f51">
    <polygon  points="32,14 10,14 10,8 0,16 10,24 10,18 32,18 "></polygon>
  </g>
  <g id="share" data-iconmelon="Minicons Free Vector Icons Pack:b39d6c63bce8276282623b316b5541e9">
    <g>
      <path  d="M16,0C7.167,0,0,7.167,0,16c0,8.838,7.167,16,16,16c8.838,0,16-7.162,16-16C32,7.167,24.838,0,16,0z
		 M16,29.866C8.354,29.866,2.134,23.646,2.134,16S8.354,2.134,16,2.134S29.866,8.354,29.866,16S23.646,29.866,16,29.866z"></path>
      <path  d="M17.066,10.667C12.8,10.667,6.4,12.8,6.4,23.467c2.133-4.267,4.267-6.4,10.666-4.267v4.267l8.533-8.533
		L17.066,6.4V10.667z"></path>
    </g>
  </g>
  <g id="share1" data-iconmelon="Minicons Free Vector Icons Pack:743cb36d53cfb6f8d114272c3ac63614">
    <path  d="M16,0C7.167,0,0,7.167,0,16c0,8.838,7.167,16,16,16c8.838,0,16-7.162,16-16C32,7.167,24.838,0,16,0z
	 M17.066,23.467V19.2c-6.399-2.134-8.533,0-10.666,4.267c0-10.667,6.399-12.8,10.666-12.8V6.4l8.533,8.533L17.066,23.467z"></path>
  </g>
  <g id="arrow-right1" data-iconmelon="Minicons Free Vector Icons Pack:858a388f86356c417f83bd6adf098c19">
    <g>
      <polygon  points="8.205,32 26.875,16 8.205,0 5.125,3.593 19.602,16 5.125,28.407 8.205,32 	"></polygon>
    </g>
  </g>
  <g id="arrow-left1" data-iconmelon="Minicons Free Vector Icons Pack:468809e4c11121820c31d0c732d2050c">
    <g>
      <polygon  points="23.793,32 26.872,28.407 12.4,16 26.872,3.593 23.793,0 5.128,16 23.793,32 	"></polygon>
    </g>
  </g>
  <g id="search1" data-iconmelon="Minicons Free Vector Icons Pack:95ef0455022204f01d6f0bfe9b17c020">
    <path  d="M31.705,27.407l-5.58-5.582c1.412-2.207,2.244-4.825,2.244-7.641C28.369,6.35,22.021,0,14.185,0
	C6.352,0,0,6.35,0,14.184c0,7.834,6.352,14.185,14.185,14.185c2.817,0,5.434-0.831,7.64-2.246l5.582,5.582
	c0.393,0.394,1.037,0.394,1.434,0l2.865-2.865C32.101,28.444,32.101,27.799,31.705,27.407z M14.185,24.316
	c-5.585,0-10.132-4.545-10.132-10.132c0-5.586,4.547-10.131,10.132-10.131c5.588,0,10.132,4.545,10.132,10.131
	C24.316,19.771,19.772,24.316,14.185,24.316z"></path>
  </g>
  <g id="dropbox2" data-iconmelon="Minicons Free Vector Icons Pack:8863aa78edfab40f8897a0e9c9405512">
    <path id="Dropbox_2_"  d="M25.957,12.604l-9.572-5.828l6.037-5L32,7.675L25.957,12.604z M22.359,23.622l9.191-5.377
	l-5.531-4.68l-8.996,5.445L22.359,23.622z M14.977,19.011l-9-5.445l-5.527,4.68l9.195,5.377L14.977,19.011z M6.426,22.856v1.729
	l9.189,5.639V19.522l-6.1,4.998L6.426,22.856z M25.57,22.856l-3.082,1.664l-6.104-4.998v10.701l9.186-5.639V22.856z M15.615,6.776
	l-6.037-5L0,7.675l6.045,4.93L15.615,6.776z"></path>
  </g>
  <g id="video1" data-iconmelon="Minicons Free Vector Icons Pack:7093e8f03b3d9baac8988c5cf32fe3d9">
    <g>
      <path  d="M20,5H2C0.9,5,0,5.9,0,7v18c0,1.1,0.9,2,2,2h18c1.1,0,2-0.9,2-2V7C22,5.9,21.1,5,20,5z"></path>
      <path  d="M30.285,8.438l-3.691,2.217c-0.752,0.452-1.795,1.077-2.594,1.557v7.493
		c0.799,0.479,1.842,1.104,2.594,1.557l3.691,2.217C31.229,24.045,32,23.607,32,22.508V9.409C32,8.31,31.229,7.871,30.285,8.438z"></path>
    </g>
  </g>
  <g id="dislike" data-iconmelon="Minicons Free Vector Icons Pack:3368323bed6220d72c70228ff56b6694">
    <path  d="M30.054,14.457c-0.281-1.21-1.367-1.991-2.424-1.746l-2.598,0.604l-0.021-0.097l3.275-0.76
	c1.209-0.283,1.963-1.491,1.682-2.7c-0.283-1.208-1.489-1.963-2.697-1.681l-0.284,0.064c0.81-0.422,1.276-1.403,1.034-2.445
	c-0.281-1.206-1.378-1.986-2.453-1.737l-0.679,0.158c0.568-0.464,0.845-1.354,0.63-2.287c-0.282-1.211-1.271-2.013-2.213-1.795
	l-5.424,1.259c-2.113,0.355-4.594,0.858-6.493,1.508C5.57,4.794,4.845,7.428,1.88,7.649c0,4.739,0.035,6.392,0.295,10.603
	c0.027,0.45,6.157-0.021,6.301,0.4c0,0,6.83,6.576,7.278,7.266c0.446,0.691,2.314,6.008,2.314,6.008s4.298,1.144,3.485-5.545
	c-0.809-6.693-2.803-6.883-2.803-6.883l1.204-0.392l8.691-2.016C29.706,16.84,30.333,15.663,30.054,14.457z"></path>
  </g>
  <g id="fire" data-iconmelon="Minicons Free Vector Icons Pack:9af42f882b0f0c981d7e9e1ae1f820a5">
    <path  d="M27.004,12c0,0-1.422,0.085-4.879,1.988l-0.219-0.312c0.105-2.597,0.367-5.76,1.098-7.677
	c-0.43,0.235-2.02,1.58-3.867,2.961C18.188,6.694,17.875,2.351,19.004,0c-8.781,6.297-13.996,15.321-14,20.969
	C5,25.368,4.363,32,15.004,32C31.562,32,23.004,20,27.004,12z M16.207,28.846c-11.988,0.34-4.332-11.363-5.602-9
	c-0.168,0.312-1.059,3.062,3.191,5.312c-2.086-2.601,1.707-5.709,3.113-7.146c0,3.688,1.496,7.146,1.496,7.146
	s2.422-1.422,4.164-6.543C24.082,25.166,22.9,28.656,16.207,28.846z"></path>
  </g>
  <g id="doc" data-iconmelon="Minicons Free Vector Icons Pack:3981392eac73e814c6036dc6fb0a4139">
    <g>
      <path  d="M20.828,0H2v32h28V9.172L20.828,0z M26,28H6V4h13.172L26,10.828V28z"></path>
      <rect x="10" y="14"  width="12" height="2"></rect>
      <rect x="10" y="10"  width="8" height="2"></rect>
      <rect x="10" y="18"  width="12" height="2"></rect>
      <rect x="10" y="22"  width="12" height="2"></rect>
    </g>
  </g>
  <g id="arhive" data-iconmelon="Minicons Free Vector Icons Pack:c02a39a7c63b8fd1a2095c8218e49bd2">
    <g>
      <path  d="M20.828,0H2v32h28V9.172L20.828,0z M14,16h2v-2h-2v-2h2v-2h-2V8h2V6h-2V4h2v2h2v2h-2v2h2v2h-2v2h2v2h-2v2h2
		v2h-2v-2h-2V16z M10,28H6V4h6v16h-2V28z M20,30h-8v-8h8V30z M26,28h-4v-8h-2V4.828l6,6V28z"></path>
      <rect x="14" y="24"  width="4" height="2"></rect>
    </g>
  </g>
  <g id="like" data-iconmelon="Minicons Free Vector Icons Pack:5a2bf3888d232f2560726b9849120d40">
    <path  d="M2.275,18.641c0.132-1.308,1.301-2.262,2.61-2.129l3.55,0.362l0.013-0.104l-2.814-0.286
	c-1.145-0.117-1.967-1.273-1.832-2.583s1.169-2.277,2.316-2.16l9.416,0.961l1.338,0.019c0,0-1.934-0.876-0.448-7.871
	c1.481-6.993,5.399-4.367,5.399-4.367s0.052,5.974,0.262,6.822c0.213,0.848,4.808,9.788,4.808,9.788
	c0,0.473,2.847,0.945,2.845,1.422c-0.033,4.111,0,7.628,0,11.887C26.685,29.604,25.052,32,18.529,32
	c-2.13,0-4.794-0.347-7.036-0.718l-5.872-0.598c-1.017-0.104-1.735-1.249-1.603-2.559c0.104-1.01,0.689-1.811,1.42-2.079L4.7,25.97
	c-1.162-0.119-2-1.275-1.865-2.584c0.115-1.123,0.915-1.947,1.869-2.099l-0.299-0.03C3.095,21.122,2.142,19.951,2.275,18.641z"></path>
  </g>
  <g id="check" data-iconmelon="Minicons Free Vector Icons Pack:eea875af3d123aff52c4ffc045ea75dc">
    <path  d="M30.727,1.841c-1.381-0.896-3.319-0.619-4.328,0.608l-15.66,19.115l-5.212-5.877
	c-1.062-1.194-3.009-1.397-4.349-0.455c-1.343,0.942-1.57,2.679-0.512,3.869l10.271,11.585L31.404,5.693
	C32.412,4.462,32.111,2.738,30.727,1.841z"></path>
  </g>
  <g id="arrow-up1" data-iconmelon="Minicons Free Vector Icons Pack:ce2ee1ab5d584ed95a6d6e4b012c56f3">
    <g>
      <polygon  points="3.593,26.873 15.998,12.398 28.407,26.873 32,23.794 15.998,5.126 0,23.794 3.593,26.873 	"></polygon>
    </g>
  </g>
  <g id="arrow-down1" data-iconmelon="Minicons Free Vector Icons Pack:d0ea5e6f722aab56758ef50526d4b594">
    <g>
      <polygon  points="15.998,26.874 32,8.206 28.407,5.127 15.998,19.602 3.593,5.127 0,8.206 15.998,26.874 	"></polygon>
    </g>
  </g>
  <g id="arrow-left2" data-iconmelon="Minicons Free Vector Icons Pack:d27af0a1e502df2b89491069e04a2ac8">
    <g>
      <path  d="M16,2.286c7.576,0,13.714,6.145,13.714,13.714c0,7.576-6.138,13.714-13.714,13.714
		C8.429,29.714,2.286,23.576,2.286,16C2.286,8.431,8.429,2.286,16,2.286 M16,0C7.179,0,0,7.179,0,16s7.179,16,16,16s16-7.179,16-16
		S24.821,0,16,0L16,0z"></path>
      <polygon  points="20.571,9.83 12.714,16.38 20.571,22.929 20.571,25.901 9.143,16.38 20.571,6.857 	"></polygon>
    </g>
  </g>
  <g id="arrow-up2" data-iconmelon="Minicons Free Vector Icons Pack:edc5289eddc1cd74d827125e54ecfa0c">
    <g>
      <path  d="M16,2.286c7.571,0,13.714,6.143,13.714,13.714c0,7.576-6.143,13.714-13.714,13.714
		C8.424,29.714,2.286,23.576,2.286,16C2.286,8.429,8.424,2.286,16,2.286 M16,0C7.179,0,0,7.179,0,16s7.179,16,16,16s16-7.179,16-16
		S24.821,0,16,0L16,0z"></path>
      <polygon  points="22.17,20.571 15.62,12.714 9.071,20.571 6.099,20.571 15.62,9.143 25.143,20.571 	"></polygon>
    </g>
  </g>
  <g id="arrow-down2" data-iconmelon="Minicons Free Vector Icons Pack:fde551eab5b1c340a3ae728c41c71b31">
    <g>
      <path  d="M16,2.286c7.576,0,13.714,6.138,13.714,13.714c0,7.571-6.138,13.714-13.714,13.714
		C8.433,29.714,2.286,23.571,2.286,16C2.286,8.424,8.433,2.286,16,2.286 M16,0C7.179,0,0,7.179,0,16s7.179,16,16,16s16-7.179,16-16
		S24.821,0,16,0L16,0z"></path>
      <polygon  points="9.83,11.429 16.38,19.286 22.929,11.429 25.901,11.429 16.38,22.857 6.857,11.429 	"></polygon>
    </g>
  </g>
  <g id="download" data-iconmelon="Minicons Free Vector Icons Pack:645a481a4b20a5fafb49e27acee7bc96">
    <g>
      <polygon  points="18,12 14,12 14,22 10,22 16,30 22,22 18,22 	"></polygon>
      <path  d="M27.988,11.111L28,11c0-4.971-4.029-9-9-9c-3.34,0-6.223,1.84-7.775,4.543C10.551,6.207,9.805,6,9,6
		c-2.762,0-5,2.238-5,5l0.012,0.111C1.629,12.5,0,15.057,0,18c0,4.4,3.6,8,8,8v-2c-3.309,0-6-2.691-6-6
		c0-2.098,1.156-4.074,3.02-5.16l0.992-0.58v-1.148l-0.01-0.209C6.053,9.293,7.379,8,9,8c0.441,0,0.889,0.113,1.33,0.332
		l1.689,0.844l0.939-1.637C14.232,5.324,16.49,4,19,4c3.82,0,6.934,3.074,7,6.879l-0.012,0.074v1.307l0.992,0.58
		C28.844,13.926,30,15.902,30,18c0,3.309-2.691,6-6,6v2c4.4,0,8-3.6,8-8C32,15.057,30.371,12.5,27.988,11.111z"></path>
    </g>
  </g>
  <g id="phone" data-iconmelon="Minicons Free Vector Icons Pack:057119e18bc56156aab440fe367d5fec">
    <g>
      <path  d="M29.707,5.125C27.25,3.042,24,1,16,1S4.754,3.042,2.293,5.125C0.941,6.272,0,7.112,0,8.888V11
		c0,1.104,0.895,2,2,2h4c1.105,0,2-0.906,2-2s0.176-2.016,1.125-3.25C10.062,6.531,12,5,16,5.083C20,5,21.969,6.531,22.906,7.75
		c0.949,1.234,1.156,2.156,1.156,3.25s0.895,2,2,2h4C31.168,13,32,12.104,32,11V8.888C32,7.112,31.062,6.272,29.707,5.125z"></path>
      <circle  cx="16" cy="23" r="4"></circle>
      <path  d="M22.984,13H22v-2.5C22,9.672,21.105,9,20,9s-2,0.672-2,1.5V13h-4v-2.5C14,9.672,13.105,9,12,9
		s-2,0.672-2,1.5V13H9.066c-0.672,0-1.297,0.336-1.668,0.896C5.875,16.193,2,22.305,2,25v4c0,1.104,0.895,2,2,2h24
		c1.105,0,2-0.895,2-2c0-1.68,0-3.812,0-3.812c0-3.458-3.855-9.207-5.387-11.35C24.238,13.312,23.629,13,22.984,13z M16,29
		c-3.309,0-6-2.691-6-6s2.691-6,6-6s6,2.691,6,6S19.309,29,16,29z"></path>
    </g>
  </g>
  <g id="linkedin1" data-iconmelon="Minicons Free Vector Icons Pack:f0084cac92dde1bde91513b988e9e7fe">
    <path id="LinkedIn__x28_alt_x29__1_"  d="M29.637,0H2.367C1.061,0,0,1.029,0,2.293v27.414C0,30.975,1.061,32,2.367,32
	h27.27C30.945,32,32,30.975,32,29.707V2.293C32,1.029,30.945,0,29.637,0z M9.703,26.789H4.867V12.338h4.836V26.789z M7.285,10.365
	H7.254c-1.621,0-2.674-1.109-2.674-2.496c0-1.416,1.084-2.496,2.736-2.496c1.654,0,2.672,1.08,2.703,2.496
	C10.02,9.256,8.971,10.365,7.285,10.365z M27.133,26.789h-4.836v-7.73c0-1.945-0.699-3.27-2.447-3.27
	c-1.338,0-2.131,0.895-2.479,1.758c-0.129,0.309-0.164,0.738-0.164,1.172v8.07h-4.828c0,0,0.061-13.094,0-14.451h4.828v2.051
	C17.85,13.404,18.996,12,21.564,12c3.182,0,5.568,2.064,5.568,6.504V26.789z M17.18,14.434c0.008-0.014,0.02-0.029,0.027-0.045
	v0.045H17.18z"></path>
  </g>
  <g id="phone1" data-iconmelon="Minicons Free Vector Icons Pack:2654f36d7966bd0517dd81b3f060aafe">
    <path  d="M30.109,24.94l-0.166-0.357c-0.498-1.172-6.604-2.965-7.107-2.995l-0.408,0.031
	c-0.833,0.17-1.746,0.959-3.675,2.665c-2.17-1.002-5.14-3.679-6.539-5.257c-1.515-1.708-3.404-4.581-4.084-6.727
	c2.194-1.945,3.109-2.791,3.168-3.73c0.03-0.505-1.017-6.778-2.119-7.414L8.846,0.947c-0.7-0.453-1.763-1.138-2.941-0.896
	C5.618,0.109,5.34,0.222,5.082,0.383C4.287,0.881,2.351,2.227,1.467,3.983C0.923,5.079,0.677,15.068,8.16,23.509
	c7.398,8.347,16.519,8.71,17.891,8.43l0.036-0.007l0.121-0.035c1.85-0.664,3.419-2.426,4.01-3.155
	C31.303,27.397,30.528,25.798,30.109,24.94z"></path>
  </g>
  <g id="sell" data-iconmelon="Minicons Free Vector Icons Pack:626602b5961e30ab24802d9604b171d1">
    <g>
      <path  d="M30,7H2C0.902,7,0,7.9,0,9v14c0,1.1,0.902,2,2,2h28c1.102,0,2-0.9,2-2V9C32,7.9,31.102,7,30,7z M10,13H6v2
		h4v6H4v-2h4v-2H4v-6h6V13z M18,13h-4v2h4v2h-4v2h4v2h-6V11h6V13z M24,21h-4V11h2v8h2V21z M30,21h-4V11h2v8h2V21z"></path>
    </g>
  </g>
  <g id="buy" data-iconmelon="Minicons Free Vector Icons Pack:02da39cef9ee58522f37c1a096389f0c">
    <g>
      <rect x="6" y="13"  width="4" height="2"></rect>
      <rect x="6" y="17"  width="4" height="2"></rect>
      <path  d="M30,7H2C0.902,7,0,7.9,0,9v14c0,1.1,0.902,2,2,2h28c1.102,0,2-0.9,2-2V9C32,7.9,31.102,7,30,7z M12,21H4V11
		h8V21z M20,21h-6V11h2v8h2v-8h2V21z M28,17h-2v4h-2v-4h-2v-6h2v4h2v-4h2V17z"></path>
    </g>
  </g>
  <g id="tag1" data-iconmelon="Minicons Free Vector Icons Pack:c23d5e274755b65cf202c45b41214d67">
    <path  d="M16,0C11.602,0,5,2,5,10c0,4,8.801,18,11,22c2.199-4,11-18,11-22C27,2,20.402,0,16,0z M16,13.5
	c-1.934,0-3.5-1.566-3.5-3.5s1.566-3.5,3.5-3.5s3.5,1.566,3.5,3.5S17.934,13.5,16,13.5z"></path>
  </g>
  <g id="image-file" data-iconmelon="Minicons Free Vector Icons Pack:ff234a6ffc9c8955b8d7c2c01d3111dc">
    <g>
      <path  d="M20.828,0H2v32h28V9.172L20.828,0z M26,28H6V4h13.172L26,10.828V28z"></path>
      <circle  cx="11" cy="12.805" r="3"></circle>
      <polygon  points="12,19.805 8,25.805 24,25.805 20,11.805 16,23.805 	"></polygon>
    </g>
  </g>
</svg>