<?xml version="1.0" encoding="utf-8"?>
<!-- Generator: Adobe Illustrator 15.0.2, SVG Export Plug-In . SVG Version: 6.00 Build 0)  -->
<!DOCTYPE svg PUBLIC "-//W3C//DTD SVG 1.1//EN" "http://www.w3.org/Graphics/SVG/1.1/DTD/svg11.dtd">
<svg version="1.1" id="Layer_1" xmlns="http://www.w3.org/2000/svg" xmlns:xlink="http://www.w3.org/1999/xlink" x="0px" y="0px"
	 width="113.386px" height="113.386px" viewBox="0 0 113.386 113.386" enable-background="new 0 0 113.386 113.386"
	 xml:space="preserve">
<g>
	<defs>
		<rect id="SVGID_1_" width="113.386" height="113.386"/>
	</defs>
	<clipPath id="SVGID_2_">
		<use xlink:href="#SVGID_1_"  overflow="visible"/>
	</clipPath>
	<path clip-path="url(#SVGID_2_)" fill-rule="evenodd" clip-rule="evenodd" fill="#231F20" d="M100.136,47.884h-9.854
		c0.718,2.787,1.142,5.699,1.142,8.71c0,19.238-15.592,34.83-34.826,34.83S21.77,75.832,21.77,56.594
		c0-3.011,0.426-5.923,1.144-8.71h-9.855v47.893c0,2.401,1.95,4.35,4.358,4.35h78.361c2.408,0,4.358-1.948,4.358-4.35V47.884z
		 M100.136,17.411c0-2.403-1.95-4.353-4.358-4.353H82.72c-2.405,0-4.354,1.95-4.354,4.353v13.063c0,2.403,1.948,4.353,4.354,4.353
		h13.058c2.408,0,4.358-1.95,4.358-4.353V17.411z M56.597,34.827c-12.023,0-21.769,9.744-21.769,21.767
		c0,12.021,9.745,21.77,21.769,21.77c12.022,0,21.77-9.749,21.77-21.77C78.366,44.571,68.619,34.827,56.597,34.827 M100.136,113.192
		H13.058C5.847,113.192,0,107.343,0,100.126V13.058C0,5.846,5.847,0,13.058,0h87.078c7.212,0,13.058,5.846,13.058,13.058v87.068
		C113.193,107.343,107.348,113.192,100.136,113.192"/>
</g>
</svg>
